/* XPM */
static char * dir_xpm[] = {
"16 16 10 1",
" 	c None",
".	c #966200",
"+	c #FFD48E",
"@	c #FFC66B",
"#	c #734A00",
"$	c #FFB848",
"%	c #FFAA00",
"&	c #DC9200",
"*	c #503200",
"=	c #B97A00",
"                ",
"                ",
" .....          ",
".+++++.......   ",
".@@@@@@@@@@@@#  ",
".$$$$$$$$$$$$#  ",
".$$$############",
".%%#%%%%%%%%%%%#",
".&&#&&&&&&&&&&&*",
"#=#&&&&&&&&&&&* ",
"#.#===========* ",
"##===========*  ",
" ########*****  ",
"                ",
"                ",
"                "};
