/* XPM */
static char * file_xpm[] = {
"16 16 11 1",
" 	c None",
".	c #6E6E6E",
"+	c #FFFFFF",
"@	c #F2F2F2",
"#	c #C2C2C2",
"$	c #E6E6E6",
"%	c #DADADA",
"&	c #CECECE",
"*	c #565656",
"=	c #626262",
"-	c #4A4A4A",
"                ",
"  .........     ",
"  .++++@@.#.    ",
"  .+++@@$.#@.   ",
"  .++@@@$.###.  ",
"  .+@@@$$.....  ",
"  .@@@$$$%%&#*  ",
"  .@@$$$%%&&#*  ",
"  =@$$$$%%&&#-  ",
"  =$$$%%%%&&#-  ",
"  =$$%%%%&&&#-  ",
"  =%%%&&&&&##-  ",
"  =%&&&&&&###-  ",
"  =&&&#######-  ",
"  ==****------  ",
"                "};
