/* XPM */
static char * user_xpm[] = {
"16 16 9 1",
" 	c None",
".	c #337198",
"+	c #6C9BC0",
"@	c #3B82B0",
"#	c #224C67",
"$	c #2A5D7F",
"%	c #000080",
"&	c #1A394F",
"*	c #224667",
"                ",
"      ...       ",
"     .++@#      ",
"    .++@.$#     ",
"    .+@..$#     ",
"    %#$$$#%     ",
"     &###&      ",
"    +@&&&#*     ",
"    @+..#$*     ",
"    @+@$.$*     ",
"    @+@$.$*     ",
"    @+@$.$*     ",
"    @+@$.$*     ",
"     $@$.#      ",
"      $$#       ",
"                "};
